<svg version="1.2" xmlns="http://www.w3.org/2000/svg" viewBox="0 0 870 263" width="870" height="263">
	<defs>
		<linearGradient id="g1" x2="1" gradientUnits="userSpaceOnUse" gradientTransform="matrix(870.59,0,0,261.976,-0.456,.443)">
			<stop offset="0" stop-color="#2f81c1"/>
			<stop offset="1" stop-color="#28669c"/>
		</linearGradient>
		<linearGradient id="g2" x2="1" gradientUnits="userSpaceOnUse" gradientTransform="matrix(0,-106.342,93.268,0,-7.885,151.7)">
			<stop offset="0" stop-color="#28669c"/>
			<stop offset="1" stop-color="#2f81c1"/>
		</linearGradient>
		<linearGradient id="g3" x2="1" gradientUnits="userSpaceOnUse" gradientTransform="matrix(0,-139.317,12.293,0,-670.269,148.968)">
			<stop offset="0" stop-color="#28669c"/>
			<stop offset="1" stop-color="#2f81c1"/>
		</linearGradient>
		<linearGradient id="g4" x2="1" gradientUnits="userSpaceOnUse" gradientTransform="matrix(0,-131.903,50.342,0,-9.039,149.943)">
			<stop offset="0" stop-color="#28669c"/>
			<stop offset="1" stop-color="#2f81c1"/>
		</linearGradient>
		<linearGradient id="g5" x2="1" gradientUnits="userSpaceOnUse" gradientTransform="matrix(0,-139.317,12.293,0,-576.417,148.968)">
			<stop offset="0" stop-color="#28669c"/>
			<stop offset="1" stop-color="#2f81c1"/>
		</linearGradient>
	</defs>
	<style>
		.s0 { fill: url(#g1) } 
		.s1 { fill: url(#g2) } 
		.s2 { fill: url(#g3) } 
		.s3 { fill: url(#g4) } 
		.s4 { fill: url(#g5) } 
		.s5 { fill: #262626 } 
	</style>
	<g id="_Artboards_">
	</g>
	<g id="Calque 2">
	</g>
	<g id="Calque 1">
	</g>
	<g id="Calque 3">
	</g>
	<g id="Calque 4">
	</g>
	<g id="Calque 5">
		<g id="&lt;Group&gt;">
			<path id="&lt;Path&gt;" class="s0" d="m243.42 223.07c-85.64 0-167.76-9.07-243.88-25.68 92.14 41.19 201.09 65.03 317.88 65.03 248.79 0 462.14-108.09 552.71-261.98-122.07 132.75-356.94 222.63-626.71 222.63z"/>
			<g id="&lt;Group&gt;">
				<path id="&lt;Compound Path&gt;" fill-rule="evenodd" class="s1" d="m14.11 63.89q3.11-6.43 8.48-10.53 5.37-4.1 12.59-6.05 7.22-1.95 16-1.95 6.63 0 13.27 1.27 6.63 1.27 11.9 4.78 5.27 3.51 8.59 9.85 3.31 6.34 3.31 16.49v53.46q0 7.42 7.22 7.42 2.15 0 3.9-0.78v10.34q-2.15 0.39-3.8 0.58-1.66 0.2-4.2 0.2-4.68 0-7.51-1.27-2.83-1.27-4.39-3.61-1.56-2.34-2.05-5.56-0.49-3.22-0.49-7.12h-0.39q-3.32 4.88-6.73 8.68-3.41 3.81-7.61 6.34-4.19 2.54-9.56 3.9-5.37 1.37-12.78 1.37-7.02 0-13.17-1.66-6.15-1.65-10.73-5.27-4.59-3.61-7.22-9.17-2.63-5.56-2.63-13.17 0-10.53 4.68-16.49 4.68-5.95 12.39-9.07 7.71-3.12 17.36-4.39 9.66-1.27 19.61-2.44 3.91-0.39 6.83-0.98 2.93-0.58 4.88-2.04 1.95-1.47 3.03-4 1.07-2.54 1.07-6.64 0-6.24-2.05-10.24-2.05-4-5.66-6.34-3.61-2.34-8.39-3.22-4.78-0.88-10.24-0.88-11.71 0-19.12 5.56-7.42 5.56-7.81 17.85h-12.29q0.58-8.78 3.71-15.22zm61.46 30.05q-1.17 2.15-4.49 3.12-3.32 0.98-5.85 1.37-7.81 1.37-16.1 2.44-8.3 1.07-15.12 3.22-6.83 2.15-11.22 6.15-4.39 4-4.39 11.41 0 4.68 1.85 8.29 1.85 3.61 4.98 6.25 3.12 2.63 7.22 4 4.09 1.36 8.39 1.36 7.02 0 13.46-2.14 6.44-2.15 11.22-6.25 4.78-4.09 7.61-9.95 2.83-5.85 2.83-13.27v-16z"/>
				<path id="&lt;Compound Path&gt;" class="s2" d="m125.32 9.65v139.32h-12.29v-139.32z"/>
				<path id="&lt;Compound Path&gt;" class="s3" d="m188.93 48.28v10.35h-20.48v67.9q0 6.05 1.65 9.46 1.66 3.42 8.3 3.81 5.27 0 10.53-0.59v10.34q-2.73 0-5.46 0.2-2.73 0.19-5.46 0.19-12.3 0-17.17-4.78-4.88-4.78-4.69-17.66v-68.87h-17.56v-10.35h17.56v-30.24h12.3v30.24z"/>
				<path id="&lt;Compound Path&gt;" class="s4" d="m219.18 9.65v19.71h-12.3v-19.71zm0 38.63v100.69h-12.29v-100.69z"/>
				<path id="&lt;Compound Path&gt;" class="s5" d="m235.57 48.09h21.26l24.2 35.32 25.17-35.32h19.9l-34.73 46.44 39.03 54.44h-21.27l-28.1-41.76-28.1 41.76h-20.1l37.86-53.08z"/>
				<path id="&lt;Compound Path&gt;" class="s5" d="m345.61 29.94v-20.29h16.59v20.29zm16.58 18.15v100.88h-16.58v-100.88z"/>
				<path id="&lt;Compound Path&gt;" fill-rule="evenodd" class="s5" d="m465.42 151.11q-6.44 0-10.25-3.61-3.8-3.6-3.8-11.8-6.83 8.2-15.91 11.8-9.07 3.61-19.6 3.61-6.84 0-12.88-1.46-6.05-1.46-10.64-4.88-4.58-3.41-7.22-8.78-2.63-5.36-2.63-12.97 0-8.59 2.93-14.05 2.92-5.46 7.7-8.88 4.78-3.41 10.93-5.17 6.15-1.76 12.59-2.93 6.82-1.36 12.97-2.05 6.15-0.68 10.83-1.95 4.68-1.26 7.42-3.71 2.73-2.43 2.73-7.12 0-5.46-2.05-8.78-2.05-3.31-5.27-5.07-3.22-1.76-7.22-2.34-4-0.59-7.9-0.59-10.54 0-17.56 4-7.03 4-7.61 15.12h-16.59q0.39-9.36 3.9-15.8 3.52-6.44 9.37-10.44 5.85-4 13.46-5.76 7.61-1.75 16-1.75 6.83 0 13.56 0.97 6.74 0.98 12.2 4 5.46 3.03 8.78 8.49 3.32 5.47 3.32 14.25v51.9q0 5.85 0.68 8.58 0.68 2.74 4.59 2.73 2.14 0.01 5.07-0.97v12.88q-4.3 2.53-11.9 2.53zm-23.22-50.83q-5.08 1.08-10.64 1.76-5.56 0.69-11.22 1.56-5.66 0.88-10.14 2.83-4.49 1.95-7.32 5.56-2.83 3.61-2.83 9.86 0 4.09 1.66 6.92 1.66 2.83 4.29 4.59 2.63 1.76 6.25 2.53 3.6 0.79 7.31 0.78 8.2 0.01 14.05-2.24 5.85-2.24 9.56-5.66 3.71-3.41 5.47-7.41 1.75-4 1.75-7.51v-16.98q-3.12 2.34-8.19 3.41z"/>
			</g>
		</g>
	</g>
</svg>